<?xml version="1.0" encoding="UTF-8"?>
<svg width="6px" height="10px" viewBox="0 0 6 10" version="1.1" xmlns="http://www.w3.org/2000/svg" xmlns:xlink="http://www.w3.org/1999/xlink">
    <!-- Generator: Sketch 53.2 (72643) - https://sketchapp.com -->
    <title></title>
    <desc>Created with Sketch.</desc>
    <g id="Page-1" stroke="none" stroke-width="1" fill="none" fill-rule="evenodd">
        <g id="CHN-Mega-menu-2" transform="translate(-1284.000000, -1202.000000)" fill="#9D7AD2" fill-rule="nonzero">
            <path d="M1289.14061,1206.96876 L1285.12109,1211.01563 C1285.04817,1211.08854 1284.9707,1211.125 1284.88867,1211.125 C1284.80664,1211.125 1284.72917,1211.09766 1284.65625,1211.04297 L1284.10937,1210.4961 C1284.05469,1210.42318 1284.02734,1210.34115 1284.02734,1210.25 C1284.02734,1210.15886 1284.05469,1210.08594 1284.10937,1210.03125 L1287.36327,1206.75001 L1284.10937,1203.46877 C1284.05469,1203.41408 1284.02734,1203.34117 1284.02734,1203.25002 C1284.02734,1203.15888 1284.05469,1203.07684 1284.10937,1203.00393 L1284.65625,1202.45705 C1284.72917,1202.40237 1284.80664,1202.37502 1284.88867,1202.37502 C1284.9707,1202.37502 1285.04817,1202.40237 1285.12109,1202.45705 L1289.14061,1206.50392 C1289.1953,1206.57684 1289.22264,1206.65887 1289.22264,1206.75001 C1289.22264,1206.84116 1289.1953,1206.92319 1289.14061,1206.99611 L1289.14061,1206.96876 Z" id=""></path>
        </g>
    </g>
</svg>