<?xml version="1.0" encoding="UTF-8"?>
<svg width="6px" height="10px" viewBox="0 0 6 10" version="1.1" xmlns="http://www.w3.org/2000/svg" xmlns:xlink="http://www.w3.org/1999/xlink">
    <!-- Generator: Sketch 53.2 (72643) - https://sketchapp.com -->
    <title></title>
    <desc>Created with Sketch.</desc>
    <g id="Page-1" stroke="none" stroke-width="1" fill="none" fill-rule="evenodd">
        <g id="CHN-Mega-menu-2" transform="translate(-524.000000, -274.000000)" fill="#FFFFFF" fill-rule="nonzero">
            <g id="Group-7" transform="translate(434.000000, 259.000000)">
                <path d="M95.1406127,19.968762 L91.1210911,24.0156273 C91.0481744,24.088544 90.9707008,24.1250021 90.8886698,24.1250021 C90.8066387,24.1250021 90.7291651,24.0976584 90.6562484,24.042971 L90.1093747,23.4960973 C90.0546874,23.4231807 90.0273437,23.3411496 90.0273437,23.2500042 C90.0273437,23.1588587 90.0546874,23.0859421 90.1093747,23.0312547 L93.3632732,19.7500125 L90.1093747,16.4687703 C90.0546874,16.414083 90.0273437,16.3411663 90.0273437,16.2500209 C90.0273437,16.1588754 90.0546874,16.0768443 90.1093747,16.0039277 L90.6562484,15.457054 C90.7291651,15.4023666 90.8066387,15.3750229 90.8886698,15.3750229 C90.9707008,15.3750229 91.0481744,15.4023666 91.1210911,15.457054 L95.1406127,19.5039194 C95.1953001,19.576836 95.2226438,19.658867 95.2226438,19.7500125 C95.2226438,19.841158 95.1953001,19.923189 95.1406127,19.9961057 L95.1406127,19.968762 Z" id=""></path>
            </g>
        </g>
    </g>
</svg>